G04*
G04 #@! TF.GenerationSoftware,Altium Limited,Altium Designer,19.0.15 (446)*
G04*
G04 Layer_Color=16711935*
%FSLAX25Y25*%
%MOIN*%
G70*
G01*
G75*
%ADD12C,0.01000*%
%ADD13C,0.00394*%
%ADD58C,0.00600*%
%ADD84C,0.00039*%
D12*
X11024Y95000D02*
G03*
X11024Y95000I-11024J0D01*
G01*
X216024Y75000D02*
G03*
X216024Y75000I-11024J0D01*
G01*
X216023Y-34957D02*
G03*
X216024Y-35000I-11023J-43D01*
G01*
X16024Y-95000D02*
G03*
X16024Y-95000I-11024J0D01*
G01*
X215000Y-177165D02*
Y177165D01*
X-13347D02*
X215000D01*
X-13347Y-177165D02*
Y177165D01*
X215000D02*
X242457D01*
X216500Y-177165D02*
X242457D01*
X241457Y13496D02*
Y177165D01*
Y-177165D02*
Y-16696D01*
X239457Y171165D02*
X241457Y177165D01*
X243457Y171165D01*
X241457Y-177165D02*
X243457Y-171165D01*
X239457D02*
X241457Y-177165D01*
X-106929Y-194646D02*
Y199055D01*
X286772D01*
Y-191496D02*
Y199055D01*
X-106929Y-194646D02*
X286772D01*
Y-191496D01*
X199882Y-80472D02*
Y84882D01*
X-107009Y-194803D02*
Y198898D01*
X286692D01*
Y-191654D02*
Y198898D01*
X-107009Y-194803D02*
X286692D01*
Y-191654D01*
X199802Y-80630D02*
Y84724D01*
X-13347Y-177165D02*
X215000D01*
X209000Y-198200D02*
X215000Y-196200D01*
X209000Y-194200D02*
X215000Y-196200D01*
X-13347D02*
X-7346Y-194200D01*
X-13347Y-196200D02*
X-7346Y-198200D01*
X114322Y-196200D02*
X215000D01*
X-13347D02*
X84131D01*
X215000Y-197200D02*
Y-178665D01*
X-13347Y-197200D02*
Y-178665D01*
X102267Y57213D02*
X108267Y59213D01*
X102267Y61213D02*
X108267Y59213D01*
X126102D02*
X132102Y61213D01*
X126102Y59213D02*
X132102Y57213D01*
X98267Y59213D02*
X108267D01*
X126102D02*
X136102D01*
X126102Y47457D02*
Y60213D01*
X108267Y47457D02*
Y60213D01*
X95168Y46457D02*
X97168Y40457D01*
X93168D02*
X95168Y46457D01*
X93168Y15370D02*
X95168Y9370D01*
X97168Y15370D01*
X95168Y38410D02*
Y46457D01*
Y9370D02*
Y14217D01*
X94168Y46457D02*
X107267D01*
X94168Y9370D02*
X107267D01*
X233937Y-76772D02*
X235937Y-82772D01*
X231937D02*
X233937Y-76772D01*
X231937Y-59551D02*
X233937Y-65551D01*
X235937Y-59551D01*
X233937Y-86772D02*
Y-76772D01*
Y-65551D02*
Y-55551D01*
X168423Y-65551D02*
X234937D01*
X168423Y-76772D02*
X234937D01*
D13*
X54685Y-169409D02*
Y-148740D01*
Y-169409D02*
X88740D01*
Y-148740D01*
X54685D02*
X88740D01*
X108267Y9370D02*
Y46457D01*
Y9370D02*
X126102D01*
Y46457D01*
X108267D02*
X126102D01*
X167423Y-65551D02*
Y-65551D01*
X102616Y-65551D02*
X167423D01*
X102616Y-76772D02*
Y-65551D01*
Y-76772D02*
X113836D01*
X167423D01*
X167423Y-76772D01*
Y-65551D01*
X8622Y-78898D02*
X103701D01*
X52500Y-95000D02*
X57500D01*
X55000Y-97500D02*
Y-92500D01*
X142500Y-95000D02*
X147500D01*
X145000Y-97500D02*
Y-92500D01*
X192500Y95000D02*
X197500D01*
X195000Y92500D02*
Y97500D01*
X106500Y95000D02*
X111500D01*
X109000Y92500D02*
Y97500D01*
D58*
X244056Y-15096D02*
X245056Y-14096D01*
Y-12097D01*
X244056Y-11097D01*
X240057D01*
X239058Y-12097D01*
Y-14096D01*
X240057Y-15096D01*
X241057D01*
X242057Y-14096D01*
Y-11097D01*
X240057Y-9098D02*
X239058Y-8098D01*
Y-6099D01*
X240057Y-5099D01*
X244056D01*
X245056Y-6099D01*
Y-8098D01*
X244056Y-9098D01*
X240057D01*
X245056Y-3100D02*
X244056D01*
Y-2100D01*
X245056D01*
Y-3100D01*
X240057Y1899D02*
X239058Y2898D01*
Y4898D01*
X240057Y5898D01*
X244056D01*
X245056Y4898D01*
Y2898D01*
X244056Y1899D01*
X240057D01*
Y7897D02*
X239058Y8897D01*
Y10896D01*
X240057Y11896D01*
X244056D01*
X245056Y10896D01*
Y8897D01*
X244056Y7897D01*
X240057D01*
X89730Y-193801D02*
X85731D01*
Y-196800D01*
X87730Y-195800D01*
X88730D01*
X89730Y-196800D01*
Y-198799D01*
X88730Y-199799D01*
X86731D01*
X85731Y-198799D01*
X91729Y-194801D02*
X92729Y-193801D01*
X94728D01*
X95728Y-194801D01*
Y-195800D01*
X94728Y-196800D01*
X95728Y-197800D01*
Y-198799D01*
X94728Y-199799D01*
X92729D01*
X91729Y-198799D01*
Y-197800D01*
X92729Y-196800D01*
X91729Y-195800D01*
Y-194801D01*
X92729Y-196800D02*
X94728D01*
X97727Y-199799D02*
Y-198799D01*
X98727D01*
Y-199799D01*
X97727D01*
X102726Y-194801D02*
X103725Y-193801D01*
X105725D01*
X106724Y-194801D01*
Y-198799D01*
X105725Y-199799D01*
X103725D01*
X102726Y-198799D01*
Y-194801D01*
X108724D02*
X109723Y-193801D01*
X111723D01*
X112722Y-194801D01*
Y-198799D01*
X111723Y-199799D01*
X109723D01*
X108724Y-198799D01*
Y-194801D01*
X108087Y66411D02*
Y72409D01*
X105088Y69410D01*
X109087D01*
X111086Y66411D02*
Y67410D01*
X112086D01*
Y66411D01*
X111086D01*
X120083Y72409D02*
X116084D01*
Y69410D01*
X118084Y70409D01*
X119083D01*
X120083Y69410D01*
Y67410D01*
X119083Y66411D01*
X117084D01*
X116084Y67410D01*
X122082Y71409D02*
X123082Y72409D01*
X125082D01*
X126081Y71409D01*
Y70409D01*
X125082Y69410D01*
X124082D01*
X125082D01*
X126081Y68410D01*
Y67410D01*
X125082Y66411D01*
X123082D01*
X122082Y67410D01*
X97767Y15817D02*
X98767Y16816D01*
Y18816D01*
X97767Y19815D01*
X93768D01*
X92769Y18816D01*
Y16816D01*
X93768Y15817D01*
X94768D01*
X95768Y16816D01*
Y19815D01*
X98767Y21815D02*
X97767D01*
Y22814D01*
X98767D01*
Y21815D01*
Y29812D02*
X92769D01*
X95768Y26813D01*
Y30812D01*
X98767Y36810D02*
Y32811D01*
X94768Y36810D01*
X93768D01*
X92769Y35810D01*
Y33811D01*
X93768Y32811D01*
X248333Y-79259D02*
Y-83258D01*
X244334Y-79259D01*
X243335D01*
X242335Y-80259D01*
Y-82258D01*
X243335Y-83258D01*
X248333Y-77260D02*
X247333D01*
Y-76260D01*
X248333D01*
Y-77260D01*
X243335Y-72262D02*
X242335Y-71262D01*
Y-69263D01*
X243335Y-68263D01*
X244334D01*
X245334Y-69263D01*
X246334Y-68263D01*
X247333D01*
X248333Y-69263D01*
Y-71262D01*
X247333Y-72262D01*
X246334D01*
X245334Y-71262D01*
X244334Y-72262D01*
X243335D01*
X245334Y-71262D02*
Y-69263D01*
X242335Y-62265D02*
Y-66264D01*
X245334D01*
X244334Y-64264D01*
Y-63265D01*
X245334Y-62265D01*
X247333D01*
X248333Y-63265D01*
Y-65264D01*
X247333Y-66264D01*
D84*
X0Y-95000D02*
Y95000D01*
M02*
