G04*
G04 #@! TF.GenerationSoftware,Altium Limited,Altium Designer,19.0.15 (446)*
G04*
G04 Layer_Color=8421504*
%FSLAX44Y44*%
%MOMM*%
G71*
G01*
G75*
%ADD16R,1.8000X0.8000*%
%ADD17R,2.0000X2.0000*%
%ADD18R,0.8000X0.2700*%
%ADD19R,0.2700X0.8000*%
%ADD20R,0.6000X0.6500*%
%ADD21R,1.2700X2.0300*%
%ADD22R,0.6000X0.6000*%
%ADD23R,0.6000X0.6000*%
%ADD24R,0.3500X0.6500*%
%ADD25R,1.7500X1.0600*%
%ADD26R,0.6500X0.6000*%
%ADD27R,3.8000X2.0300*%
%ADD28R,3.1000X1.2500*%
%ADD29R,2.2000X1.6000*%
%ADD30R,1.4000X0.3000*%
%ADD31R,0.2500X0.5200*%
%ADD32R,0.2500X0.7200*%
%ADD33R,0.3000X0.8500*%
D16*
X195600Y-98600D02*
D03*
Y-82600D02*
D03*
D17*
X436300Y-26000D02*
D03*
D18*
X417300Y-36000D02*
D03*
Y-31000D02*
D03*
Y-26000D02*
D03*
Y-21000D02*
D03*
Y-16000D02*
D03*
X455300D02*
D03*
Y-21000D02*
D03*
Y-26000D02*
D03*
Y-31000D02*
D03*
Y-36000D02*
D03*
D19*
X426300Y-7000D02*
D03*
X431300D02*
D03*
X436300D02*
D03*
X441300D02*
D03*
X446300D02*
D03*
Y-45000D02*
D03*
X441300D02*
D03*
X436300D02*
D03*
X431300D02*
D03*
X426300D02*
D03*
D20*
X241463Y-178250D02*
D03*
Y-187750D02*
D03*
X441054Y-117836D02*
D03*
Y-127336D02*
D03*
X441090Y-97250D02*
D03*
Y-106750D02*
D03*
X473300Y-35850D02*
D03*
Y-26350D02*
D03*
X253300Y-90450D02*
D03*
Y-80950D02*
D03*
X425500Y-106850D02*
D03*
Y-97350D02*
D03*
X465000Y-126924D02*
D03*
Y-117424D02*
D03*
X465000Y-97250D02*
D03*
Y-106750D02*
D03*
D21*
X48250Y-224150D02*
D03*
X73650Y-258450D02*
D03*
X99050Y-224150D02*
D03*
X124450Y-258450D02*
D03*
X149850Y-224150D02*
D03*
X175250Y-258450D02*
D03*
X200650Y-224150D02*
D03*
X226050Y-258450D02*
D03*
X276850D02*
D03*
X251450Y-224150D02*
D03*
X469900D02*
D03*
X495300Y-258450D02*
D03*
X444500D02*
D03*
X419100Y-224150D02*
D03*
X393700Y-258450D02*
D03*
X368300Y-224150D02*
D03*
X342900Y-258450D02*
D03*
X317500Y-224150D02*
D03*
X495250Y224150D02*
D03*
X469850Y258450D02*
D03*
X444450Y224150D02*
D03*
X419050Y258450D02*
D03*
X368250D02*
D03*
X393650Y224150D02*
D03*
X165050D02*
D03*
X139650Y258450D02*
D03*
X190450D02*
D03*
X215850Y224150D02*
D03*
X241250Y258450D02*
D03*
X266650Y224150D02*
D03*
X292050Y258450D02*
D03*
X317450Y224150D02*
D03*
D22*
X218900Y-124400D02*
D03*
Y-114400D02*
D03*
X396500Y-15000D02*
D03*
Y-25000D02*
D03*
X396200Y-45600D02*
D03*
Y-35600D02*
D03*
X253500Y-135600D02*
D03*
Y-125600D02*
D03*
X230300Y-114500D02*
D03*
Y-124500D02*
D03*
X253300Y-113100D02*
D03*
Y-103100D02*
D03*
D23*
X432200Y-62400D02*
D03*
X422200D02*
D03*
D24*
X223900Y-101000D02*
D03*
X230400D02*
D03*
X236900D02*
D03*
Y-80000D02*
D03*
X230400D02*
D03*
X223900D02*
D03*
D25*
X230400Y-90500D02*
D03*
D26*
X448750Y-67200D02*
D03*
X458250D02*
D03*
X470950Y-67100D02*
D03*
X480450D02*
D03*
X410050Y-67400D02*
D03*
X400550D02*
D03*
X390250D02*
D03*
X380750D02*
D03*
D27*
X523199Y135899D02*
D03*
D28*
X408954Y100250D02*
D03*
Y40750D02*
D03*
D29*
X413454Y114500D02*
D03*
Y26500D02*
D03*
D30*
X444954Y88000D02*
D03*
Y83000D02*
D03*
Y78000D02*
D03*
Y73000D02*
D03*
Y68000D02*
D03*
Y63000D02*
D03*
Y53000D02*
D03*
Y58000D02*
D03*
D31*
X291000Y-96000D02*
D03*
X297000D02*
D03*
X303000D02*
D03*
X309000D02*
D03*
X315000D02*
D03*
X321000D02*
D03*
X327000D02*
D03*
X333000D02*
D03*
X339000D02*
D03*
X345000D02*
D03*
X351000D02*
D03*
X363000D02*
D03*
X369000D02*
D03*
X375000D02*
D03*
X381000D02*
D03*
X387000D02*
D03*
X393000D02*
D03*
X399000D02*
D03*
X357000D02*
D03*
D32*
X354000Y-120300D02*
D03*
X402000D02*
D03*
X396000D02*
D03*
X390000D02*
D03*
X384000D02*
D03*
X378000D02*
D03*
X372000D02*
D03*
X366000D02*
D03*
X360000D02*
D03*
X348000D02*
D03*
X342000D02*
D03*
X336000D02*
D03*
X330000D02*
D03*
X324000D02*
D03*
X318000D02*
D03*
X312000D02*
D03*
X306000D02*
D03*
X300000D02*
D03*
X294000D02*
D03*
X288000D02*
D03*
D33*
X408700Y-119650D02*
D03*
X280900D02*
D03*
M02*
